<svg width="74" height="74" viewBox="0 0 74 74" fill="none" xmlns="http://www.w3.org/2000/svg">
<g clip-path="url(#clip0_2_1541)" >
<path d="M69.0299 18.5077C64.0905 9.95266 56.1153 3.83277 46.573 1.27601C37.0309 -1.28103 27.0643 0.0311659 18.5088 4.97081C9.95343 9.91031 3.83383 17.8855 1.27707 27.4278C-1.27969 36.9699 0.0325136 46.9368 4.97187 55.4919C9.91108 64.047 17.8866 70.1668 27.4287 72.7236C30.615 73.5775 33.8483 73.9998 37.0611 73.9998C43.4695 73.9998 49.7945 72.319 55.4931 69.0289C64.0481 64.0896 70.168 56.1144 72.7248 46.5721C75.2817 37.0297 73.9692 27.0631 69.0299 18.5077ZM69.0043 45.5753C66.7137 54.1237 61.2314 61.2686 53.5669 65.6936C45.9027 70.1187 36.9738 71.294 28.4254 69.0038C19.8768 66.7133 12.732 61.2309 8.30693 53.5664C3.88196 45.9022 2.70649 36.9732 4.99716 28.4246C7.28784 19.8762 12.7702 12.7316 20.4345 8.3063C25.5401 5.35859 31.2056 3.85301 36.9471 3.85301C39.8247 3.85301 42.7224 4.23139 45.5759 4.9961C54.1243 7.28663 61.2692 12.769 65.6942 20.4335C70.1193 28.0978 71.2949 37.0267 69.0043 45.5753Z" fill="rgb(152, 63, 63)"/>
<path d="M54.7454 33.5098L30.9662 19.7807C29.7043 19.0521 28.1977 19.0524 26.9358 19.7806C25.6739 20.509 24.9205 21.814 24.9205 23.271V50.7291C24.9205 52.1861 25.6738 53.4909 26.9358 54.2195C27.5667 54.5839 28.2586 54.7658 28.9507 54.7658C29.643 54.7658 30.3352 54.5834 30.9661 54.2194L54.7455 40.4905C56.0073 39.7617 56.7604 38.4569 56.7604 36.9999C56.7604 35.543 56.0071 34.2382 54.7454 33.5098ZM52.8193 37.1551L29.04 50.884C29.011 50.9009 28.9504 50.9357 28.8614 50.884C28.7721 50.8324 28.7721 50.7627 28.7721 50.7292V23.2712C28.7721 23.2376 28.7721 23.168 28.8614 23.1164C28.8964 23.0961 28.9269 23.0892 28.9529 23.0892C28.9934 23.0892 29.0226 23.1061 29.0403 23.1164L52.8195 36.8454C52.8485 36.8622 52.9088 36.897 52.9088 37.0002C52.9088 37.1034 52.8482 37.1384 52.8193 37.1551Z" fill="rgb(152, 63, 63)"/>
<path d="M59.7352 19.4308C55.1551 13.514 48.2701 9.5388 40.8452 8.52433C39.7926 8.38023 38.8205 9.11778 38.6764 10.1718C38.5326 11.2256 39.2701 12.1966 40.3239 12.3407C46.7573 13.2196 52.7222 16.6635 56.6895 21.7886C57.069 22.2788 57.6383 22.5355 58.2137 22.5355C58.6255 22.5355 59.0404 22.4041 59.391 22.1324C60.2321 21.4814 60.3861 20.2718 59.7352 19.4308Z" fill="rgb(152, 63, 63)"/>
</g>
<defs>
<clipPath id="clip0_2_1541">
<rect width="74" height="74" fill="rgb(152, 63, 63)"/>
</clipPath>
</defs>
</svg>
