<svg width="370" height="312" viewBox="0 0 370 312" fill="none" xmlns="http://www.w3.org/2000/svg">
<mask id="mask0_2_1532" style="mask-type:alpha" maskUnits="userSpaceOnUse" x="0" y="0" width="370" height="312">
<path d="M0 10C0 4.47715 4.47715 0 10 0H360C365.523 0 370 4.47715 370 10V302C370 307.523 365.523 312 360 312H188.041C186.059 312 184.121 311.411 182.474 310.307L4.43229 190.971C1.66226 189.114 0 185.999 0 182.664V10Z" fill="#C4C4C4"/>
</mask>
<g mask="url(#mask0_2_1532)">
<path d="M0 10C0 4.47715 4.47715 0 10 0H360C365.523 0 370 4.47715 370 10V302C370 307.523 365.523 312 360 312H188.041C186.059 312 184.121 311.411 182.474 310.307L4.43229 190.971C1.66226 189.114 0 185.999 0 182.664V10Z" fill="#C4C4C4"/>
</g>
</svg>
