<svg width="50" height="50" viewBox="0 0 50 50" fill="none" xmlns="http://www.w3.org/2000/svg">
<path d="M8.79475 38.6696C8.10695 38.6683 7.43 38.8411 6.82692 39.1718C3.93394 35.4558 2.24804 30.943 1.99595 26.2402C1.74386 21.5374 2.93766 16.8701 5.41681 12.8661C7.89597 8.86202 11.5416 5.71318 15.8634 3.84301C20.1853 1.97283 24.976 1.47099 29.5915 2.40499C29.8454 2.45672 30.1094 2.40548 30.3254 2.26255C30.5415 2.11962 30.6919 1.8967 30.7437 1.64283C30.7954 1.38896 30.7442 1.12494 30.6013 0.908855C30.4583 0.692765 30.2354 0.542305 29.9816 0.490575C28.3414 0.161989 26.6724 -0.00233922 24.9996 2.51532e-05C20.304 -0.00014988 15.7033 1.3223 11.7244 3.81593C7.74553 6.30955 4.54929 9.87351 2.5018 14.0996C0.454298 18.3258 -0.361678 23.0432 0.147321 27.7116C0.65632 32.3801 2.46971 36.8107 5.37981 40.4962C4.87226 41.2572 4.6335 42.1661 4.70146 43.0783C4.76941 43.9906 5.14019 44.854 5.75489 45.5314C6.36959 46.2088 7.19299 46.6614 8.09429 46.8172C8.9956 46.9731 9.92314 46.8234 10.7296 46.3917C11.5361 45.9601 12.1752 45.2714 12.5455 44.4349C12.9159 43.5985 12.9961 42.6622 12.7736 41.7749C12.551 40.8876 12.0385 40.1002 11.3172 39.5375C10.596 38.9749 9.70748 38.6694 8.7928 38.6696H8.79475ZM10.314 44.2909C9.963 44.6417 9.50124 44.8599 9.0074 44.9084C8.51356 44.9569 8.01817 44.8327 7.60561 44.557C7.19305 44.2812 6.88884 43.871 6.74477 43.3961C6.60071 42.9212 6.62571 42.411 6.81552 41.9525C7.00533 41.4939 7.3482 41.1154 7.78575 40.8813C8.22329 40.6472 8.72845 40.5721 9.21518 40.6686C9.70191 40.7652 10.1401 41.0276 10.4552 41.411C10.7702 41.7944 10.9426 42.2752 10.943 42.7715C10.9436 43.0537 10.8882 43.3332 10.7801 43.5938C10.672 43.8545 10.5132 44.0911 10.313 44.2899L10.314 44.2909Z" fill="#FF4815"/>
<path d="M44.6186 9.50491C45.1724 8.67127 45.4019 7.66367 45.2637 6.67238C45.1254 5.6811 44.6291 4.77474 43.8683 4.12444C43.1076 3.47415 42.1351 3.12493 41.1345 3.14274C40.1339 3.16054 39.1744 3.54414 38.4372 4.22109C37.7001 4.89804 37.2363 5.82149 37.1334 6.81706C37.0306 7.81264 37.2957 8.81143 37.8788 9.62484C38.462 10.4383 39.3227 11.01 40.2985 11.2321C41.2744 11.4541 42.2977 11.3112 43.1754 10.8303C46.0627 14.5435 47.7456 19.051 47.998 23.7481C48.2505 28.4453 47.0605 33.1073 44.5878 37.1086C42.1151 41.11 38.4779 44.2593 34.1642 46.1341C29.8505 48.0089 25.0667 48.5194 20.4546 47.5971C20.3289 47.5719 20.1994 47.5718 20.0736 47.5967C19.9478 47.6216 19.8281 47.671 19.7214 47.7421C19.6147 47.8132 19.523 47.9047 19.4516 48.0113C19.3803 48.1178 19.3306 48.2374 19.3054 48.3632C19.2803 48.4889 19.2801 48.6184 19.305 48.7442C19.3299 48.8701 19.3793 48.9898 19.4504 49.0965C19.5215 49.2032 19.613 49.2949 19.7195 49.3663C19.8261 49.4376 19.9456 49.4873 20.0714 49.5125C21.6945 49.8365 23.3456 49.9999 25.0007 50.0001C29.6964 50.0003 34.2972 48.6777 38.2761 46.184C42.255 43.6902 45.4513 40.1261 47.4987 35.8999C49.5461 31.6736 50.3619 26.956 49.8527 22.2875C49.3435 17.619 47.5299 13.1884 44.6196 9.50295L44.6186 9.50491ZM39.6863 8.75006C39.3356 8.399 39.1174 7.9372 39.0689 7.4433C39.0204 6.94941 39.1445 6.45396 39.4203 6.04136C39.696 5.62875 40.1062 5.3245 40.5811 5.18042C41.0559 5.03634 41.566 5.06135 42.0245 5.25117C42.483 5.441 42.8615 5.78392 43.0956 6.22151C43.3296 6.65911 43.4048 7.16432 43.3082 7.65111C43.2116 8.13789 42.9493 8.57614 42.5659 8.89121C42.1826 9.20629 41.7018 9.37871 41.2056 9.3791C40.9228 9.38055 40.6425 9.32578 40.381 9.21796C40.1195 9.11014 39.882 8.95143 39.6824 8.75104L39.6863 8.75006Z" fill="#FF4815"/>
<path d="M20.9712 41.7992C20.9712 42.0579 21.0739 42.3059 21.2568 42.4888C21.4397 42.6717 21.6877 42.7745 21.9463 42.7745H28.0526C28.3113 42.7745 28.5593 42.6717 28.7422 42.4888C28.925 42.3059 29.0278 42.0579 29.0278 41.7992V39.9063C30.3101 39.5611 31.542 39.0503 32.6923 38.3868L34.0293 39.7239C34.1198 39.8147 34.2274 39.8868 34.3459 39.9359C34.4644 39.9851 34.5914 40.0104 34.7197 40.0104C34.8479 40.0104 34.9749 39.9851 35.0934 39.9359C35.2119 39.8868 35.3195 39.8147 35.4101 39.7239L39.726 35.4045C39.8168 35.3139 39.8889 35.2063 39.938 35.0878C39.9872 34.9693 40.0125 34.8423 40.0125 34.714C40.0125 34.5858 39.9872 34.4587 39.938 34.3403C39.8889 34.2218 39.8168 34.1142 39.726 34.0236L38.3911 32.6885C39.0544 31.538 39.5652 30.3059 39.9103 29.0235H41.7962C42.0549 29.0235 42.3029 28.9207 42.4858 28.7378C42.6686 28.5549 42.7714 28.3069 42.7714 28.0482V21.9393C42.7714 21.6806 42.6686 21.4326 42.4858 21.2497C42.3029 21.0668 42.0549 20.964 41.7962 20.964H39.9093C39.5645 19.6816 39.0541 18.4496 38.3911 17.299L39.7192 15.9708C39.8102 15.8801 39.8823 15.7725 39.9316 15.6539C39.9808 15.5353 40.0062 15.4082 40.0062 15.2798C40.0062 15.1514 39.9808 15.0243 39.9316 14.9057C39.8823 14.7871 39.8102 14.6794 39.7192 14.5888L35.4003 10.2724C35.3097 10.1816 35.2021 10.1095 35.0836 10.0603C34.9652 10.0112 34.8382 9.98587 34.7099 9.98587C34.5816 9.98587 34.4546 10.0112 34.3362 10.0603C34.2177 10.1095 34.1101 10.1816 34.0195 10.2724L32.6933 11.5987C31.5429 10.9353 30.3111 10.4245 29.0287 10.0793V8.20193C29.0287 7.94328 28.926 7.69522 28.7431 7.51233C28.5603 7.32943 28.3122 7.22668 28.0536 7.22668H21.9483C21.6896 7.22668 21.4416 7.32943 21.2587 7.51233C21.0759 7.69522 20.9731 7.94328 20.9731 8.20193V10.0783C19.6908 10.4231 18.4589 10.9335 17.3085 11.5968L15.9824 10.2704C15.8918 10.1796 15.7842 10.1076 15.6657 10.0584C15.5472 10.0092 15.4202 9.98391 15.292 9.98391C15.1637 9.98391 15.0367 10.0092 14.9182 10.0584C14.7997 10.1076 14.6921 10.1796 14.6016 10.2704L10.2827 14.5869C10.1918 14.6775 10.1198 14.7851 10.0706 14.9036C10.0215 15.0221 9.99618 15.1491 9.99618 15.2774C9.99618 15.4056 10.0215 15.5327 10.0706 15.6511C10.1198 15.7696 10.1918 15.8772 10.2827 15.9678L11.6108 17.2961C10.9474 18.4466 10.4367 19.6786 10.0915 20.9611H8.20951C7.95089 20.9611 7.70287 21.0638 7.51999 21.2467C7.33712 21.4296 7.23438 21.6777 7.23438 21.9363V28.0434C7.23438 28.302 7.33712 28.5501 7.51999 28.733C7.70287 28.9158 7.95089 29.0186 8.20951 29.0186H10.0896C10.4347 30.3011 10.9455 31.5331 11.6089 32.6836L10.2739 34.0187C10.1831 34.1093 10.111 34.2169 10.0619 34.3354C10.0127 34.4539 9.98741 34.5809 9.98741 34.7092C9.98741 34.8374 10.0127 34.9645 10.0619 35.083C10.111 35.2014 10.1831 35.3091 10.2739 35.3996L14.5899 39.719C14.6804 39.8099 14.788 39.882 14.9065 39.9312C15.025 39.9804 15.152 40.0057 15.2802 40.0057C15.4085 40.0058 15.5354 39.9807 15.6539 39.9316C15.7724 39.8826 15.88 39.8107 15.9706 39.72L17.3066 38.3829C18.4571 39.0462 19.6889 39.557 20.9712 39.9024V41.7992ZM17.6888 36.333C17.5013 36.2114 17.2777 36.1579 17.0554 36.1815C16.8332 36.2051 16.6258 36.3044 16.468 36.4627L15.2793 37.6544L12.3441 34.717L13.5318 33.5281C13.6898 33.3704 13.7889 33.1631 13.8125 32.9411C13.8361 32.719 13.7828 32.4956 13.6615 32.3081C12.7778 30.9449 12.1499 29.4319 11.8088 27.8434C11.7621 27.6249 11.6418 27.4291 11.468 27.2887C11.2942 27.1482 11.0775 27.0718 10.8541 27.072H9.17686V22.9184H10.8521C11.0756 22.9187 11.2923 22.8422 11.466 22.7018C11.6398 22.5613 11.7601 22.3655 11.8068 22.147C12.148 20.5585 12.7758 19.0456 13.6596 17.6823C13.7809 17.4948 13.8342 17.2714 13.8106 17.0493C13.787 16.8273 13.6879 16.6201 13.5299 16.4623L12.35 15.2813L15.2871 12.3458L16.466 13.5258C16.6238 13.6841 16.8312 13.7833 17.0535 13.8069C17.2757 13.8306 17.4993 13.7771 17.6869 13.6555C19.0499 12.7715 20.5628 12.1436 22.1511 11.8025C22.3696 11.7559 22.5654 11.6355 22.7058 11.4617C22.8462 11.288 22.9227 11.0712 22.9224 10.8478V9.17718H27.0755V10.8449C27.0753 11.0683 27.1518 11.285 27.2922 11.4588C27.4326 11.6326 27.6284 11.7529 27.8469 11.7996C29.4351 12.141 30.9479 12.7689 32.3111 13.6526C32.4985 13.7739 32.7219 13.8272 32.944 13.8036C33.166 13.78 33.3732 13.6809 33.531 13.5229L34.7109 12.3438L37.648 15.2793L36.4681 16.4594C36.3098 16.6172 36.2106 16.8246 36.187 17.0469C36.1634 17.2692 36.2168 17.4928 36.3384 17.6804C37.2219 19.0437 37.8498 20.5566 38.1912 22.145C38.2378 22.3635 38.3581 22.5594 38.5319 22.6998C38.7057 22.8402 38.9224 22.9167 39.1458 22.9165H40.824V27.0701H39.1458C38.9224 27.0698 38.7057 27.1463 38.5319 27.2867C38.3581 27.4271 38.2378 27.623 38.1912 27.8415C37.85 29.43 37.2222 30.9429 36.3384 32.3062C36.2168 32.4937 36.1634 32.7174 36.187 32.9396C36.2106 33.1619 36.3098 33.3693 36.4681 33.5272L37.6558 34.715L34.7206 37.6525L33.5319 36.4636C33.3741 36.3054 33.1667 36.2061 32.9445 36.1825C32.7222 36.1589 32.4986 36.2124 32.3111 36.3339C30.9479 37.2176 29.4351 37.8455 27.8469 38.1869C27.6284 38.2336 27.4326 38.3539 27.2922 38.5277C27.1518 38.7015 27.0753 38.9182 27.0755 39.1417V40.8269H22.9244V39.1417C22.9246 38.9182 22.8481 38.7015 22.7077 38.5277C22.5673 38.3539 22.3715 38.2336 22.153 38.1869C20.5647 37.8454 19.0519 37.2171 17.6888 36.333Z" fill="#FF4815"/>
<path d="M33.069 25.0013C33.069 23.4052 32.5958 21.8449 31.7091 20.5178C30.8225 19.1907 29.5622 18.1563 28.0877 17.5455C26.6133 16.9347 24.9908 16.7748 23.4255 17.0862C21.8602 17.3976 20.4224 18.1662 19.2939 19.2949C18.1654 20.4235 17.3969 21.8615 17.0855 23.4269C16.7742 24.9924 16.934 26.615 17.5447 28.0896C18.1555 29.5643 19.1897 30.8247 20.5167 31.7114C21.8437 32.5982 23.4038 33.0715 24.9998 33.0715C27.1392 33.0692 29.1903 32.2182 30.703 30.7052C32.2158 29.1923 33.0667 27.141 33.069 25.0013ZM18.8847 25.0013C18.8847 23.7915 19.2434 22.6089 19.9154 21.6031C20.5874 20.5972 21.5426 19.8131 22.6602 19.3502C23.7778 18.8872 25.0075 18.7661 26.1939 19.0021C27.3803 19.2381 28.4701 19.8207 29.3255 20.6761C30.1808 21.5316 30.7633 22.6215 30.9993 23.808C31.2353 24.9945 31.1142 26.2244 30.6512 27.3421C30.1883 28.4598 29.4044 29.4151 28.3986 30.0872C27.3929 30.7593 26.2104 31.1181 25.0007 31.1181C23.3792 31.1163 21.8246 30.4713 20.678 29.3245C19.5314 28.1778 18.8865 26.623 18.8847 25.0013Z" fill="#FF4815"/>
<path d="M33.9914 3.69317C34.217 3.69299 34.4355 3.61462 34.6098 3.47139C34.7841 3.32816 34.9033 3.12894 34.9472 2.90766C34.9911 2.68638 34.9569 2.45673 34.8505 2.25782C34.7441 2.05892 34.572 1.90306 34.3635 1.81679C34.1551 1.73053 33.9232 1.7192 33.7073 1.78473C33.4915 1.85025 33.305 1.98859 33.1797 2.17617C33.0544 2.36375 32.998 2.58898 33.0201 2.81348C33.0422 3.03799 33.1414 3.24788 33.3009 3.40742C33.4845 3.58976 33.7326 3.69242 33.9914 3.69317Z" fill="#FF4815"/>
<path d="M16.051 46.3262C15.8254 46.3263 15.6068 46.4047 15.4325 46.548C15.2582 46.6912 15.139 46.8904 15.0951 47.1117C15.0512 47.333 15.0854 47.5626 15.1918 47.7615C15.2983 47.9604 15.4704 48.1163 15.6788 48.2025C15.8872 48.2888 16.1191 48.3001 16.335 48.2346C16.5509 48.1691 16.7373 48.0307 16.8627 47.8432C16.988 47.6556 17.0444 47.4304 17.0223 47.2059C17.0002 46.9813 16.9009 46.7715 16.7414 46.6119C16.5577 46.4297 16.3097 46.327 16.051 46.3262Z" fill="#FF4815"/>
</svg>
