<svg width="43" height="38" viewBox="0 0 43 38" fill="none" xmlns="http://www.w3.org/2000/svg">
<path d="M16.752 27.252C16.5856 27.2521 16.4247 27.1929 16.298 27.085L11.762 23.222C11.6845 23.1563 11.6222 23.0745 11.5794 22.9823C11.5367 22.8901 11.5146 22.7896 11.5146 22.688C11.5146 22.5864 11.5367 22.486 11.5794 22.3937C11.6222 22.3015 11.6845 22.2197 11.762 22.154L16.298 18.291C16.4395 18.1705 16.6231 18.1111 16.8083 18.1259C16.9936 18.1407 17.1654 18.2285 17.286 18.37C17.4065 18.5115 17.4659 18.6951 17.4511 18.8804C17.4363 19.0656 17.3485 19.2375 17.207 19.358L13.298 22.687L17.207 26.016C17.3169 26.1087 17.3956 26.2331 17.4323 26.3721C17.4691 26.5111 17.4621 26.6581 17.4124 26.793C17.3627 26.9279 17.2727 27.0443 17.1545 27.1262C17.0363 27.2082 16.8958 27.2517 16.752 27.251V27.252Z" fill="#FF4815"/>
<path d="M25.708 27.252C25.5642 27.2527 25.4237 27.2092 25.3055 27.1272C25.1873 27.0453 25.0973 26.9289 25.0476 26.794C24.9978 26.6591 24.9909 26.5121 25.0276 26.3731C25.0644 26.234 25.1431 26.1097 25.253 26.017L29.162 22.688L25.253 19.359C25.1115 19.2385 25.0237 19.0666 25.0089 18.8814C24.9941 18.6961 25.0535 18.5125 25.174 18.371C25.2945 18.2295 25.4664 18.1417 25.6516 18.1269C25.8369 18.112 26.0205 18.1715 26.162 18.292L30.698 22.155C30.7755 22.2207 30.8378 22.3025 30.8805 22.3947C30.9233 22.4869 30.9454 22.5874 30.9454 22.689C30.9454 22.7906 30.9233 22.891 30.8805 22.9832C30.8378 23.0755 30.7755 23.1573 30.698 23.223L26.162 27.086C26.0353 27.1938 25.8744 27.253 25.708 27.253V27.252Z" fill="#FF4815"/>
<path d="M19.624 30.149C19.5749 30.1491 19.526 30.144 19.478 30.134C19.3879 30.1151 19.3025 30.0786 19.2265 30.0267C19.1506 29.9747 19.0856 29.9083 19.0354 29.8312C18.9851 29.7541 18.9506 29.6679 18.9337 29.5774C18.9168 29.4869 18.9179 29.3941 18.937 29.304L21.764 15.881C21.8023 15.6991 21.9113 15.5398 22.0671 15.4383C22.2228 15.3367 22.4125 15.3012 22.5945 15.3395C22.7764 15.3778 22.9357 15.4869 23.0372 15.6426C23.1388 15.7984 23.1743 15.9881 23.136 16.17L20.309 29.593C20.2759 29.7502 20.1898 29.8913 20.0651 29.9925C19.9404 30.0938 19.7846 30.149 19.624 30.149Z" fill="#FF4815"/>
<path d="M37.754 37.462H4.707C3.45903 37.4607 2.26256 36.9643 1.38011 36.0819C0.497663 35.1994 0.00132354 34.003 0 32.755L0 4.707C0.00132354 3.45903 0.497663 2.26256 1.38011 1.38011C2.26256 0.497663 3.45903 0.00132354 4.707 0L37.754 0C39.0018 0.00158817 40.198 0.498045 41.0802 1.38046C41.9625 2.26288 42.4587 3.45921 42.46 4.707V32.755C42.4587 34.0028 41.9625 35.1991 41.0802 36.0815C40.198 36.964 39.0018 37.4604 37.754 37.462ZM4.707 1.4C3.83252 1.40238 2.99453 1.75082 2.37617 2.36917C1.75782 2.98753 1.40938 3.82552 1.407 4.7V32.755C1.40938 33.6295 1.75782 34.4675 2.37617 35.0858C2.99453 35.7042 3.83252 36.0526 4.707 36.055H37.754C38.6285 36.0526 39.4665 35.7042 40.0848 35.0858C40.7032 34.4675 41.0516 33.6295 41.054 32.755V4.707C41.0516 3.83252 40.7032 2.99453 40.0848 2.37617C39.4665 1.75782 38.6285 1.40938 37.754 1.407L4.707 1.4Z" fill="#FF4815"/>
<path d="M41.759 11.2249H0.7C0.514348 11.2249 0.336301 11.1512 0.205025 11.0199C0.0737498 10.8886 0 10.7106 0 10.5249C0 10.3393 0.0737498 10.1613 0.205025 10.03C0.336301 9.8987 0.514348 9.82495 0.7 9.82495H41.759C41.9446 9.82495 42.1227 9.8987 42.254 10.03C42.3853 10.1613 42.459 10.3393 42.459 10.5249C42.459 10.7106 42.3853 10.8886 42.254 11.0199C42.1227 11.1512 41.9446 11.2249 41.759 11.2249Z" fill="#FF4815"/>
<path d="M11.977 7.87106C11.5383 7.87106 11.1095 7.74098 10.7448 7.49726C10.38 7.25354 10.0957 6.90714 9.92784 6.50185C9.75997 6.09657 9.71604 5.6506 9.80162 5.22035C9.8872 4.7901 10.0985 4.39489 10.4086 4.0847C10.7188 3.7745 11.114 3.56326 11.5443 3.47768C11.9745 3.3921 12.4205 3.43602 12.8258 3.60389C13.2311 3.77177 13.5775 4.05606 13.8212 4.4208C14.0649 4.78555 14.195 5.21438 14.195 5.65306C14.1942 6.24107 13.9603 6.80476 13.5445 7.22054C13.1287 7.63633 12.565 7.87027 11.977 7.87106ZM11.977 4.83606C11.8156 4.83606 11.6578 4.88392 11.5237 4.97358C11.3895 5.06324 11.2849 5.19068 11.2231 5.33979C11.1614 5.48889 11.1452 5.65297 11.1767 5.81125C11.2082 5.96954 11.2859 6.11494 11.4 6.22906C11.5141 6.34318 11.6595 6.42089 11.8178 6.45238C11.9761 6.48386 12.1402 6.46771 12.2893 6.40595C12.4384 6.34419 12.5658 6.2396 12.6555 6.10541C12.7452 5.97121 12.793 5.81345 12.793 5.65206C12.7927 5.43572 12.7067 5.22833 12.5537 5.07535C12.4007 4.92238 12.1933 4.83633 11.977 4.83606Z" fill="#FF4815"/>
<path d="M5.16099 7.84897C4.72231 7.84897 4.29349 7.71888 3.92874 7.47516C3.56399 7.23145 3.2797 6.88504 3.11183 6.47976C2.94395 6.07447 2.90003 5.6285 2.98561 5.19826C3.07119 4.76801 3.28244 4.37279 3.59263 4.0626C3.90282 3.75241 4.29803 3.54117 4.72828 3.45558C5.15853 3.37 5.6045 3.41392 6.00979 3.5818C6.41507 3.74968 6.76148 4.03396 7.00519 4.39871C7.24891 4.76346 7.379 5.19228 7.379 5.63096C7.3782 6.21897 7.14426 6.78267 6.72848 7.19845C6.3127 7.61423 5.749 7.84817 5.16099 7.84897ZM5.16099 4.81397C4.9996 4.81397 4.84184 4.86182 4.70765 4.95149C4.57346 5.04115 4.46887 5.16859 4.40711 5.31769C4.34535 5.4668 4.32919 5.63087 4.36067 5.78916C4.39216 5.94745 4.46988 6.09284 4.584 6.20696C4.69811 6.32108 4.84351 6.3988 5.0018 6.43028C5.16009 6.46177 5.32416 6.44561 5.47326 6.38385C5.62237 6.32209 5.74981 6.2175 5.83947 6.08331C5.92913 5.94912 5.97699 5.79135 5.97699 5.62996C5.97647 5.41371 5.89032 5.20646 5.73741 5.05355C5.58449 4.90063 5.37725 4.81449 5.16099 4.81397Z" fill="#FF4815"/>
<path d="M18.793 7.89095C18.3543 7.89095 17.9255 7.76087 17.5607 7.51716C17.196 7.27344 16.9117 6.92704 16.7438 6.52175C16.576 6.11646 16.5321 5.6705 16.6176 5.24025C16.7032 4.81 16.9145 4.41479 17.2246 4.10459C17.5348 3.7944 17.93 3.58316 18.3603 3.49758C18.7905 3.41199 19.2365 3.45592 19.6418 3.62379C20.0471 3.79167 20.3935 4.07595 20.6372 4.4407C20.8809 4.80545 21.011 5.23428 21.011 5.67296C21.0102 6.26096 20.7763 6.82466 20.3605 7.24044C19.9447 7.65623 19.381 7.89016 18.793 7.89095ZM18.793 4.85595C18.6316 4.85595 18.4739 4.90382 18.3397 4.99348C18.2055 5.08314 18.1009 5.21058 18.0391 5.35969C17.9774 5.50879 17.9612 5.67286 17.9927 5.83115C18.0242 5.98944 18.1019 6.13484 18.216 6.24896C18.3301 6.36308 18.4755 6.44079 18.6338 6.47228C18.7921 6.50376 18.9562 6.4876 19.1053 6.42584C19.2544 6.36408 19.3818 6.25949 19.4715 6.1253C19.5611 5.99111 19.609 5.83335 19.609 5.67196C19.6085 5.45579 19.5223 5.24865 19.3694 5.0959C19.2164 4.94314 19.0092 4.85722 18.793 4.85695V4.85595Z" fill="#FF4815"/>
</svg>
