<svg width="45" height="50" viewBox="0 0 45 50" fill="none" xmlns="http://www.w3.org/2000/svg">
<path d="M41.0754 6.5035H40.4854C41.0659 5.54903 41.2509 4.4039 41.0008 3.31388C40.7507 2.22386 40.0854 1.27583 39.1477 0.67326C38.21 0.0706883 37.0747 -0.138397 35.9853 0.0908806C34.896 0.320158 33.9395 0.969523 33.3212 1.89961L30.2561 6.5035H3.92464C2.88416 6.50479 1.88666 6.9208 1.15092 7.66029C0.415184 8.39978 0.00128376 9.40237 0 10.4482V35.6716C0.00128376 36.7174 0.415184 37.72 1.15092 38.4595C1.88666 39.1989 2.88416 39.615 3.92464 39.6162H19.1711L18.0175 44.4795H15.5327C14.7535 44.4803 14.0064 44.7918 13.4554 45.3456C12.9044 45.8994 12.5946 46.6502 12.5938 47.4334V48.0497H9.52975C9.27243 48.0497 9.02564 48.1525 8.84369 48.3354C8.66173 48.5182 8.55951 48.7663 8.55951 49.0249C8.55951 49.2836 8.66173 49.5316 8.84369 49.7145C9.02564 49.8974 9.27243 50.0001 9.52975 50.0001H35.4712C35.7285 50.0001 35.9753 49.8974 36.1573 49.7145C36.3392 49.5316 36.4415 49.2836 36.4415 49.0249C36.4415 48.7663 36.3392 48.5182 36.1573 48.3354C35.9753 48.1525 35.7285 48.0497 35.4712 48.0497H32.4062V47.4334C32.4054 46.6501 32.0954 45.899 31.5442 45.3452C30.9931 44.7914 30.2457 44.4801 29.4664 44.4795H26.9816L25.8299 39.6162H41.0754C42.1158 39.615 43.1133 39.1989 43.8491 38.4595C44.5848 37.72 44.9987 36.7174 45 35.6716V10.4491C44.9987 9.40318 44.5847 8.40044 43.8487 7.66092C43.1128 6.92141 42.115 6.50551 41.0744 6.50448L41.0754 6.5035ZM27.1533 23.6669C25.6339 24.7396 22.7872 23.2827 20.0705 24.7396C19.4078 21.2767 19.825 18.0206 23.2772 17.3018C23.7163 17.2107 24.1639 17.1679 24.6122 17.1741L28.1284 19.7974C28.4358 20.456 28.5071 21.2012 28.3303 21.9066C28.1534 22.612 27.7393 23.2343 27.1582 23.6679L27.1533 23.6669ZM28.1323 13.1992L30.8829 15.2471L28.7688 17.847L26.2791 15.9941L28.1323 13.1992ZM34.9356 2.98597C35.11 2.72579 35.335 2.50383 35.5971 2.33349C35.8591 2.16316 36.1529 2.04799 36.4605 1.99495C36.7681 1.9419 37.0832 1.95207 37.3867 2.02486C37.6903 2.09764 37.9761 2.23152 38.2267 2.41842C38.4774 2.60531 38.6878 2.84133 38.8451 3.11222C39.0025 3.38312 39.1036 3.68326 39.1423 3.99453C39.181 4.30579 39.1566 4.62172 39.0704 4.92322C38.9842 5.22472 38.8382 5.50553 38.641 5.7487L32.1171 13.7453L29.2151 11.5813L34.9356 2.98597ZM30.4628 47.4334V48.0497H14.5372V47.4334C14.5374 47.1681 14.6424 46.9138 14.829 46.7262C15.0157 46.5386 15.2687 46.4331 15.5327 46.4329H29.4664C29.7305 46.4329 29.9838 46.5382 30.1706 46.7259C30.3575 46.9135 30.4626 47.168 30.4628 47.4334ZM24.9838 44.4795H20.0171L21.1688 39.6162H23.8321L24.9838 44.4795ZM43.0576 35.6716C43.0571 36.1998 42.8481 36.7063 42.4764 37.0798C42.1048 37.4533 41.6009 37.6634 41.0754 37.6639H3.92561C3.40006 37.6634 2.89617 37.4533 2.52455 37.0798C2.15292 36.7063 1.94392 36.1998 1.9434 35.6716V31.0979H4.72025C4.97757 31.0979 5.22436 30.9952 5.40631 30.8123C5.58827 30.6294 5.69049 30.3814 5.69049 30.1227C5.69049 29.8641 5.58827 29.616 5.40631 29.4332C5.22436 29.2503 4.97757 29.1475 4.72025 29.1475H1.9434V10.4491C1.94392 9.9209 2.15292 9.41445 2.52455 9.04093C2.89617 8.6674 3.40006 8.45733 3.92561 8.45682H28.958L24.4512 15.2256C23.5067 15.2018 22.5681 15.3809 21.6981 15.7509C20.828 16.1209 20.0465 16.6732 19.4059 17.3711C17.7128 19.3575 17.4149 22.4801 18.522 26.6501C18.5652 26.8141 18.6502 26.9641 18.7687 27.085C18.8872 27.2059 19.035 27.2937 19.1976 27.3396C19.3602 27.3855 19.5319 27.3879 19.6957 27.3467C19.8595 27.3055 20.0098 27.222 20.1316 27.1045C22.6436 24.6919 25.7726 27.3239 28.5728 25.0439C29.3667 24.3638 29.9335 23.4549 30.1965 22.4402C30.4594 21.4255 30.4057 20.3542 30.0427 19.3712L38.9447 8.45682H41.0792C41.6048 8.45733 42.1087 8.6674 42.4803 9.04093C42.8519 9.41445 43.0609 9.9209 43.0614 10.4491V29.1446H12.4987C12.2414 29.1446 11.9946 29.2473 11.8126 29.4302C11.6307 29.6131 11.5285 29.8612 11.5285 30.1198C11.5285 30.3784 11.6307 30.6265 11.8126 30.8094C11.9946 30.9922 12.2414 31.095 12.4987 31.095H43.0614L43.0576 35.6716Z" fill="#FF4815"/>
<path d="M8.41877 29.1633C8.23075 29.2013 8.05815 29.2944 7.92277 29.4309C7.78738 29.5675 7.69529 29.7413 7.65813 29.9304C7.62097 30.1195 7.6404 30.3154 7.71397 30.4935C7.78754 30.6715 7.91194 30.8236 8.07147 30.9306C8.231 31.0375 8.4185 31.0946 8.61029 31.0946C8.80207 31.0945 8.98954 31.0373 9.149 30.9302C9.30847 30.8231 9.43278 30.671 9.50624 30.4929C9.5797 30.3148 9.599 30.1189 9.56172 29.9298C9.53691 29.804 9.48764 29.6843 9.41673 29.5776C9.34582 29.4709 9.25467 29.3794 9.1485 29.3082C9.04232 29.237 8.92321 29.1875 8.79799 29.1627C8.67278 29.1378 8.54391 29.138 8.41877 29.1633Z" fill="#FF4815"/>
</svg>
